# xmcd CD database file
#
# Track frame offsets:
#	150
#	12881
#	23822
#	36406
#	50007
#	76513
#	89838
#	99554
#	118392
#	129673
#
# Disc length: 1991 seconds
#
# Revision: 0
# Processed by: cddbd v1.5.2PL0 Copyright (c) Steve Scherf et al.
# Submitted via: CDex 1.51
#
DISCID=8207c50a
DTITLE=Emmylou Harris - Gliding Bird
DYEAR=1969
DGENRE=Country
TTITLE0=I'll Be Your Baby Tonight
TTITLE1=Fugue For The Ox
TTITLE2=I Saw The Light
TTITLE3=Clocks
TTITLE4=Black Gypsy
TTITLE5=Gliding Bird
TTITLE6=Everybody's Talkin'
TTITLE7=Bobbie's Gone
TTITLE8=I'll Never Fall In Love Again
TTITLE9=Waltz Of The Magic Man
EXTD=YEAR: 1969
EXTT0=
EXTT1=
EXTT2=
EXTT3=
EXTT4=
EXTT5=
EXTT6=
EXTT7=
EXTT8=
EXTT9=
PLAYORDER=
